<svg width="32" height="32" viewBox="0 0 32 32" fill="none" xmlns="http://www.w3.org/2000/svg">
<circle cx="16" cy="16" r="15.5" fill="black" stroke="black"/>
<path d="M12.5239 18.7684C12.3286 18.9637 12.3286 19.2802 12.5239 19.4755C12.7192 19.6708 13.0357 19.6708 13.231 19.4755L12.5239 18.7684ZM19.6213 12.878C19.6213 12.6019 19.3975 12.378 19.1213 12.378L14.6213 12.378C14.3452 12.378 14.1213 12.6019 14.1213 12.878C14.1213 13.1542 14.3452 13.378 14.6213 13.378L18.6213 13.378L18.6213 17.378C18.6213 17.6542 18.8452 17.878 19.1213 17.878C19.3975 17.878 19.6213 17.6542 19.6213 17.378L19.6213 12.878ZM13.231 19.4755L19.4749 13.2316L18.7678 12.5245L12.5239 18.7684L13.231 19.4755Z" fill="white"/>
</svg>
