<svg width="121" height="55" viewBox="0 0 121 55" fill="none" xmlns="http://www.w3.org/2000/svg">
<rect x="114.942" y="50.7942" width="101.933" height="30.1328" rx="2.64853" transform="rotate(-174.444 114.942 50.7942)" fill="#F9C200"/>
<path d="M24.8498 16.3294C28.5571 16.3294 32.4221 17.2957 32.4221 23.2707C32.4221 29.2654 28.5571 30.2317 24.8498 30.2317H19.7227V16.3294H24.8498ZM24.8498 27.471C27.3147 27.471 29.267 27.2738 29.267 23.2707C29.267 19.2874 27.3147 19.0902 24.8498 19.0902H22.8778V27.471H24.8498ZM48.2043 19.0902H45.0492V27.471H48.2043V30.2317H38.739V27.471H41.8941V19.0902H38.739V16.3294H48.2043V19.0902ZM55.5113 30.2317V16.3294H61.723L65.9232 29.4429H66.712L66.1204 27.471V16.3294H69.2756V30.2317H63.0639L58.8636 17.1182H58.0749L58.6665 19.0902V30.2317H55.5113ZM81.9124 16.3294C85.6196 16.3294 89.4847 17.2957 89.4847 23.2707C89.4847 29.2654 85.6196 30.2317 81.9124 30.2317H76.7853V16.3294H81.9124ZM81.9124 27.471C84.3773 27.471 86.3295 27.2738 86.3295 23.2707C86.3295 19.2874 84.3773 19.0902 81.9124 19.0902H79.9404V27.471H81.9124ZM96.5865 25.0652V16.3294H99.7416V23.6651C99.7416 26.1497 99.9585 27.6682 102.857 27.6682C105.756 27.6682 105.993 26.1497 105.993 23.6651V16.3294H109.148V25.0652C109.148 28.5358 106.979 30.4289 102.857 30.4289C98.7359 30.4289 96.5865 28.5358 96.5865 25.0652Z" fill="black"/>
<rect x="20.6006" y="37.0745" width="101.968" height="18.3953" rx="9.19762" transform="rotate(-6.84939 20.6006 37.0745)" fill="#202020" stroke="black" stroke-width="1.32427"/>
<path d="M34.3079 42.546C34.3079 44.9321 32.6317 46.5688 28.3526 46.5688C23.3438 46.5688 21.4705 44.5179 21.4705 41.0079H24.6256C24.6256 43.1376 25.6905 43.808 28.4512 43.808C30.4823 43.808 31.1528 43.3348 31.1528 42.5854C31.1528 41.5797 29.4569 41.1262 27.4258 40.436C24.4876 39.45 22.1015 38.6613 22.1015 35.94C22.1015 33.5736 23.9749 32.2721 27.5638 32.2721C31.8232 32.2721 33.736 34.4413 33.736 37.202H30.5809C30.5809 35.5061 29.2794 35.0329 27.5638 35.0329C26.144 35.0329 25.2566 35.3484 25.2566 36.0583C25.2566 36.6893 25.5919 36.9259 27.8202 37.6753C30.3837 38.5429 34.3079 39.6472 34.3079 42.546ZM51.8706 32.4693V35.2301H47.3351V46.3716H44.18V35.2301H39.6248V32.4693H51.8706ZM67.3415 46.3716L66.0794 41.915H60.4396L59.1973 46.3716H56.0028L60.0058 32.4693H66.5133L70.536 46.3716H67.3415ZM61.2087 39.1542H65.3104L63.6539 33.2581H62.8651L61.2087 39.1542ZM76.2699 39.4106C76.2699 35.3681 78.9912 32.2721 83.4084 32.2721C87.2932 32.2721 89.8567 34.4018 90.2708 37.833H87.1157C86.8002 35.9991 85.3409 35.0329 83.4478 35.0329C81.0223 35.0329 79.4251 36.5513 79.4251 39.4106C79.4251 42.2896 81.0223 43.808 83.4478 43.808C85.3409 43.808 86.8002 42.8221 87.1157 40.9882H90.2708C89.8567 44.4391 87.2932 46.5688 83.4084 46.5688C78.9912 46.5688 76.2699 43.4728 76.2699 39.4106ZM111.155 32.4693L102.774 39.4303L111.155 46.3716H106.54L100.723 41.4614V46.3716H97.5678V32.4693H100.723V37.3992L106.54 32.4693H111.155Z" fill="#FFFEF4"/>
</svg>
