<svg width="106" height="43" viewBox="0 0 106 43" fill="none" xmlns="http://www.w3.org/2000/svg">
<rect x="86.7969" y="39.0995" width="76.9732" height="22.7544" rx="2" transform="rotate(-174.444 86.7969 39.0995)" fill="#F9C200"/>
<path d="M18.7651 13.5019C21.5646 13.5019 24.4832 14.2316 24.4832 18.7435C24.4832 23.2703 21.5646 24 18.7651 24H14.8935V13.5019H18.7651ZM18.7651 21.9153C20.6265 21.9153 22.1007 21.7664 22.1007 18.7435C22.1007 15.7355 20.6265 15.5866 18.7651 15.5866H17.276V21.9153H18.7651ZM36.4009 15.5866H34.0184V21.9153H36.4009V24H29.2533V21.9153H31.6358V15.5866H29.2533V13.5019H36.4009V15.5866ZM41.9187 24V13.5019H46.6093L49.7811 23.4044H50.3767L49.93 21.9153V13.5019H52.3126V24H47.6219L44.4502 14.0975H43.8545L44.3013 15.5866V24H41.9187ZM61.8551 13.5019C64.6546 13.5019 67.5732 14.2316 67.5732 18.7435C67.5732 23.2703 64.6546 24 61.8551 24H57.9834V13.5019H61.8551ZM61.8551 21.9153C63.7164 21.9153 65.1906 21.7664 65.1906 18.7435C65.1906 15.7355 63.7164 15.5866 61.8551 15.5866H60.366V21.9153H61.8551ZM72.936 20.0986V13.5019H75.3186V19.0413C75.3186 20.9176 75.4824 22.0642 77.6713 22.0642C79.8603 22.0642 80.039 20.9176 80.039 19.0413V13.5019L82.4215 13.5019V20.0986C82.4215 22.7194 80.7835 24.1489 77.6713 24.1489C74.5591 24.1489 72.936 22.7194 72.936 20.0986Z" fill="black"/>
<rect x="15.5561" y="28.7391" width="77" height="13.8909" rx="6.94545" transform="rotate(-6.84939 15.5561 28.7391)" fill="#202020" stroke="black"/>
<path d="M25.9068 33.299C25.9068 35.1008 24.6411 36.3367 21.4098 36.3367C17.6275 36.3367 16.2128 34.7881 16.2128 32.1375H18.5954C18.5954 33.7457 19.3995 34.252 21.4842 34.252C23.018 34.252 23.5243 33.8946 23.5243 33.3288C23.5243 32.5693 22.2437 32.2268 20.7099 31.7057C18.4912 30.9611 16.6893 30.3655 16.6893 28.3105C16.6893 26.5236 18.104 25.5408 20.8141 25.5408C24.0306 25.5408 25.475 27.1788 25.475 29.2635H23.0924C23.0924 27.9829 22.1096 27.6255 20.8141 27.6255C19.742 27.6255 19.0719 27.8638 19.0719 28.3999C19.0719 28.8764 19.325 29.0551 21.0077 29.6209C22.9435 30.2761 25.9068 31.11 25.9068 33.299ZM39.169 25.6897V27.7745H35.7441V36.1878H33.3616V27.7745H29.9218V25.6897H39.169ZM50.8517 36.1878L49.8986 32.8225H45.6398L44.7017 36.1878H42.2894L45.3122 25.6897H50.2262L53.264 36.1878H50.8517ZM46.2206 30.7377H49.3179L48.0671 26.2854H47.4714L46.2206 30.7377ZM57.5939 30.9313C57.5939 27.8787 59.6488 25.5408 62.9844 25.5408C65.9179 25.5408 67.8537 27.149 68.1664 29.7401H65.7839C65.5456 28.3552 64.4437 27.6255 63.0142 27.6255C61.1826 27.6255 59.9764 28.7721 59.9764 30.9313C59.9764 33.1054 61.1826 34.252 63.0142 34.252C64.4437 34.252 65.5456 33.5075 65.7839 32.1226H68.1664C67.8537 34.7285 65.9179 36.3367 62.9844 36.3367C59.6488 36.3367 57.5939 33.9989 57.5939 30.9313ZM83.9365 25.6897L77.6078 30.9462L83.9365 36.1878H80.452L76.0592 32.48V36.1878H73.6766V25.6897H76.0592V29.4125L80.452 25.6897H83.9365Z" fill="#FFFEF4"/>
</svg>
