<svg width="286" height="114" viewBox="0 0 286 114" fill="none" xmlns="http://www.w3.org/2000/svg">
<rect x="233.991" y="105.268" width="207.236" height="61.2618" rx="5.38462" transform="rotate(-174.444 233.991 105.268)" fill="#F9C200"/>
<path d="M50.8291 35.7359C58.3662 35.7359 66.224 37.7004 66.224 49.8479C66.224 62.0355 58.3662 64 50.8291 64H40.4055V35.7359H50.8291ZM50.8291 58.3873C55.8405 58.3873 59.8095 57.9864 59.8095 49.8479C59.8095 41.7495 55.8405 41.3486 50.8291 41.3486H46.82V58.3873H50.8291ZM98.3102 41.3486H91.8957V58.3873H98.3102V64H79.0666V58.3873H85.4811V41.3486H79.0666V35.7359H98.3102V41.3486ZM113.166 64V35.7359H125.794L134.334 62.3964H135.937L134.735 58.3873V35.7359H141.149V64H128.521L119.981 37.3395H118.378L119.58 41.3486V64H113.166ZM166.841 35.7359C174.378 35.7359 182.236 37.7004 182.236 49.8479C182.236 62.0355 174.378 64 166.841 64H156.417V35.7359H166.841ZM166.841 58.3873C171.852 58.3873 175.821 57.9864 175.821 49.8479C175.821 41.7495 171.852 41.3486 166.841 41.3486H162.832V58.3873H166.841ZM196.674 53.4962V35.7359H203.088V50.6497C203.088 55.7012 203.529 58.7882 209.423 58.7882C215.316 58.7882 215.797 55.7012 215.797 50.6497V35.7359H222.212V53.4962C222.212 60.5522 217.802 64.4009 209.423 64.4009C201.044 64.4009 196.674 60.5522 196.674 53.4962Z" fill="black"/>
<rect x="42.1892" y="77.3747" width="207.308" height="37.3986" rx="18.6993" transform="rotate(-6.84939 42.1892 77.3747)" fill="#202020" stroke="black" stroke-width="2.69231"/>
<path d="M70.0568 89.0363C70.0568 93.8873 66.6491 97.2149 57.9493 97.2149C47.7662 97.2149 43.9576 93.0454 43.9576 85.9092H50.3722C50.3722 90.2391 52.5371 91.6021 58.1498 91.6021C62.2792 91.6021 63.6422 90.64 63.6422 89.1165C63.6422 87.0719 60.1944 86.1498 56.0651 84.7466C50.0915 82.7421 45.2405 81.1384 45.2405 75.6059C45.2405 70.795 49.0492 68.149 56.3457 68.149C65.0053 68.149 68.8942 72.559 68.8942 78.1717H62.4796C62.4796 74.7239 59.8336 73.7617 56.3457 73.7617C53.4592 73.7617 51.6551 74.4031 51.6551 75.8464C51.6551 77.1293 52.3366 77.6104 56.8669 79.1339C62.0787 80.8979 70.0568 83.143 70.0568 89.0363ZM105.763 68.5499V74.1626H96.5419V96.814H90.1273V74.1626H80.8663V68.5499H105.763ZM137.216 96.814L134.65 87.7534H123.184L120.658 96.814H114.164L122.302 68.5499H135.532L143.711 96.814H137.216ZM124.748 82.1407H133.087L129.719 70.1535H128.115L124.748 82.1407ZM155.368 82.6619C155.368 74.4432 160.901 68.149 169.881 68.149C177.779 68.149 182.991 72.4788 183.833 79.4546H177.418C176.777 75.7261 173.81 73.7617 169.961 73.7617C165.03 73.7617 161.783 76.8487 161.783 82.6619C161.783 88.5151 165.03 91.6021 169.961 91.6021C173.81 91.6021 176.777 89.5976 177.418 85.8691H183.833C182.991 92.8851 177.779 97.2149 169.881 97.2149C160.901 97.2149 155.368 90.9206 155.368 82.6619ZM226.29 68.5499L209.252 82.702L226.29 96.814H216.909L205.082 86.8313V96.814H198.668V68.5499H205.082V78.5726L216.909 68.5499H226.29Z" fill="#FFFEF4"/>
</svg>
