<svg width="32" height="20" viewBox="0 0 32 20" fill="none" xmlns="http://www.w3.org/2000/svg">
<path d="M7.78534 5.53229H13.6532V5.99643H8.32322V9.48972H13.3353V9.95386H8.32322V13.7892H13.7143V14.2533H7.78534V5.53229ZM14.1788 5.53229H14.8023L17.5651 9.36758L20.389 5.53229L24.2299 0.660583L17.9196 9.77065L21.1713 14.2533H20.5234L17.5651 10.1737L14.5945 14.2533H13.9588L17.235 9.77065L14.1788 5.53229ZM21.4036 5.99643V5.53229H28.0905V5.99643H25.0099V14.2533H24.472V5.99643H21.4036Z" fill="black"/>
<path d="M0.444458 5.53229H1.11681L10.3882 19.3394L6.55679 14.2533L1.00679 6.19186L0.982343 14.2533H0.444458V5.53229Z" fill="black"/>
<path d="M28.0364 13.6491C28.1476 13.6491 28.2287 13.5644 28.2287 13.4548C28.2287 13.3453 28.1476 13.2606 28.0364 13.2606C27.9265 13.2606 27.8441 13.3453 27.8441 13.4548C27.8441 13.5644 27.9265 13.6491 28.0364 13.6491ZM28.5649 13.1381C28.5649 13.4614 28.7991 13.6726 29.1405 13.6726C29.5042 13.6726 29.724 13.4548 29.724 13.0768V11.7457H29.431V13.0755C29.431 13.2854 29.325 13.3975 29.1379 13.3975C28.9705 13.3975 28.8566 13.2932 28.8527 13.1381H28.5649ZM30.1073 13.1211C30.1283 13.4575 30.4096 13.6726 30.8282 13.6726C31.2756 13.6726 31.5556 13.447 31.5556 13.0872C31.5556 12.8043 31.396 12.6479 31.0087 12.5579L30.8007 12.5071C30.5548 12.4497 30.4553 12.3728 30.4553 12.2385C30.4553 12.069 30.6097 11.9582 30.8413 11.9582C31.0611 11.9582 31.2128 12.0664 31.2403 12.2398H31.5255C31.5085 11.923 31.2285 11.7001 30.8452 11.7001C30.4331 11.7001 30.1584 11.923 30.1584 12.2581C30.1584 12.5345 30.3141 12.6987 30.6555 12.7782L30.8988 12.8369C31.1487 12.8956 31.2586 12.9816 31.2586 13.125C31.2586 13.2919 31.0859 13.4131 30.8504 13.4131C30.5979 13.4131 30.4226 13.2997 30.3978 13.1211H30.1073Z" fill="black"/>
</svg>
