<svg width="81" height="100" viewBox="0 0 81 100" fill="none" xmlns="http://www.w3.org/2000/svg">
<path d="M3.10319 92.15L0.00320229 9.60018C-0.0435804 8.28907 0.423745 7.01156 1.30551 6.04013C2.18727 5.06869 3.41369 4.48021 4.72319 4.40019L74.923 0.0101999C75.6089 -0.0335677 76.2965 0.0638312 76.9432 0.296374C77.59 0.528917 78.1822 0.89166 78.6831 1.36217C79.1841 1.83269 79.5832 2.40097 79.8558 3.03187C80.1284 3.66278 80.2687 4.34291 80.268 5.03019V94.975C80.2673 95.6541 80.1292 96.326 79.8618 96.9502C79.5945 97.5744 79.2035 98.1381 78.7125 98.6071C78.2215 99.0762 77.6405 99.441 77.0047 99.6795C76.3689 99.918 75.6914 100.025 75.013 99.995L7.90318 96.98C6.64243 96.9232 5.4491 96.3945 4.55996 95.4989C3.67082 94.6033 3.15084 93.4111 3.10319 92.15Z" fill="#FF4785"/>
<path fill-rule="evenodd" clip-rule="evenodd" d="M69.4035 0.355225L59.7436 0.955223L59.2736 12.2902C59.2678 12.432 59.3024 12.5726 59.3733 12.6955C59.4443 12.8184 59.5486 12.9187 59.6743 12.9847C59.8 13.0507 59.9418 13.0796 60.0833 13.0682C60.2248 13.0568 60.3601 13.0055 60.4736 12.9202L64.8735 9.5802L68.5935 12.5102C68.7058 12.5991 68.8413 12.654 68.9838 12.6683C69.1263 12.6827 69.2699 12.656 69.3977 12.5913C69.5255 12.5266 69.6321 12.4267 69.7049 12.3033C69.7777 12.18 69.8137 12.0383 69.8085 11.8952L69.4035 0.355225ZM61.8836 38.3051C60.1186 39.6801 46.9386 40.6151 46.9386 38.6601C47.2186 31.1952 43.8786 30.8701 42.0186 30.8701C40.2586 30.8701 37.2886 31.4002 37.2886 35.4001C37.2886 39.4751 41.6286 41.7751 46.7236 44.4751C53.9586 48.3101 62.7235 52.9551 62.7235 64.6351C62.7235 75.835 53.6236 82.015 42.0236 82.015C30.0486 82.015 19.5837 77.17 20.7636 60.3751C21.2286 58.4051 36.4536 58.8751 36.4536 60.3751C36.2636 67.3051 37.8436 69.3451 41.8336 69.3451C44.8986 69.3451 46.2886 67.6551 46.2886 64.8151C46.2886 60.5101 41.7686 57.9701 36.5636 55.0501C29.5186 51.0951 21.2286 46.4401 21.2286 35.7551C21.2286 25.0952 28.5586 17.9852 41.6486 17.9852C54.7386 17.9852 61.8836 24.9852 61.8836 38.3051Z" fill="white"/>
</svg>
