<svg width="32" height="20" viewBox="0 0 32 20" fill="none" xmlns="http://www.w3.org/2000/svg">
<path d="M16 0.669205C11.8517 0.669205 9.25921 2.74276 8.22204 6.88947C9.77779 4.81592 11.5926 4.03863 13.6666 4.55682C14.85 4.85249 15.6958 5.71109 16.6322 6.66111C18.1572 8.20869 19.9223 9.9998 23.778 9.9998C27.9259 9.9998 30.5188 7.92625 31.5556 3.77914C30.0002 5.8527 28.1854 6.63037 26.111 6.11218C24.928 5.81651 24.0822 4.95792 23.1458 4.0079C21.6208 2.46032 19.8553 0.669205 16 0.669205ZM8.22204 9.9998C4.07415 9.9998 1.48124 12.0734 0.444458 16.2205C1.99982 14.1469 3.81467 13.3692 5.889 13.8878C7.07205 14.1839 7.91782 15.0421 8.85422 15.9917C10.3792 17.5393 12.1447 19.3308 16 19.3308C20.1483 19.3308 22.7408 17.2572 23.778 13.1101C22.2222 15.1837 20.4074 15.9614 18.3334 15.4428C17.15 15.1475 16.3042 14.2885 15.3678 13.3389C13.8428 11.7913 12.0778 9.9998 8.22204 9.9998Z" fill="#06B6D4"/>
</svg>
